<?xml version="1.0" encoding="utf-8"?>
<!-- Generator: Adobe Illustrator 19.0.1, SVG Export Plug-In . SVG Version: 6.00 Build 0)  -->
<svg version="1.1" xmlns="http://www.w3.org/2000/svg" xmlns:xlink="http://www.w3.org/1999/xlink" x="0px" y="0px"
	 viewBox="0 0 187.3 186.3" style="enable-background:new 0 0 187.3 186.3;" xml:space="preserve">
<style type="text/css">
	.st0{display:none;fill:#312783;}
	.st1{fill:#FFFFFF;}
	.st2{display:none;fill:#D63A20;}
	.st3{display:none;}
	.st4{display:inline;fill:#D63A20;}
</style>
<g id="Layer_36">
	<g id="Layer_35" class="st3">
		<circle class="st4" cx="93.5" cy="93.2" r="91.5"/>
	</g>
	<g id="Layer_34">
		<g>
			<polygon class="st1" points="37.8,84.2 37.8,88.8 71.9,79 55.8,79 			"/>
			<polygon class="st1" points="37.8,93.9 37.8,98.7 80.2,86.6 80.2,81.7 			"/>
			<polygon class="st1" points="80.2,101.5 37.8,113.7 37.8,118.5 80.2,106.3 			"/>
			<polygon class="st1" points="37.8,108.6 80.2,96.4 80.2,91.6 37.8,103.8 			"/>
			<polygon class="st1" points="80.2,111.4 38.1,123.5 40.1,127.7 80.2,116.2 			"/>
			<polygon class="st1" points="78.5,126.6 80.2,123.1 80.2,121.2 42.3,132.1 44.3,136.4 			"/>
			<polygon class="st1" points="54.9,158.2 59,166.6 64.5,155.4 			"/>
			<polygon class="st1" points="38.1,79 37.8,79 37.8,79.1 			"/>
			<polygon class="st1" points="75.6,132.4 46.5,140.8 48.4,144.8 48.5,145 72.9,138 			"/>
			<polygon class="st1" points="67.3,149.5 69.6,144.8 70.1,143.9 50.7,149.5 52.8,153.7 			"/>
		</g>
	</g>
	<rect x="38.1" y="53.9" class="st1" width="42.1" height="28.5"/>
	<g id="Layer_9">
		<polygon class="st1" points="54.7,64.4 97,36.5 90,25.8 47.7,53.7 		"/>
		<path class="st1" d="M91.3,32.6c2.7,4.1,8.2,5.2,12.3,2.5l0,0c4.1-2.7,5.2-8.2,2.5-12.3l0,0c-2.7-4.1-8.2-5.2-12.3-2.5l0,0
			C89.7,23,88.6,28.6,91.3,32.6L91.3,32.6z"/>
		
			<rect x="89" y="47.5" transform="matrix(-0.7022 -0.712 0.712 -0.7022 175.0839 181.006)" class="st1" width="72.8" height="12.7"/>
		<path class="st1" d="M139.5,68.7c-3.5,3.5-3.5,9.2,0,12.8l16.2,16.3c3.5,3.5,9.2,3.5,12.8,0l0,0c3.5-3.5,3.5-9.2,0-12.8
			l-16.2-16.3C148.8,65.2,143.1,65.2,139.5,68.7L139.5,68.7z"/>
		<path class="st1" d="M139.5,114c-3.5-3.5-3.5-9.2,0-12.8L155.8,85c3.5-3.5,9.2-3.5,12.8,0l0,0c3.5,3.5,3.5,9.2,0,12.8L152.3,114
			C148.8,117.5,143.1,117.5,139.5,114L139.5,114z"/>
		<polygon class="st1" points="111.4,134 144.8,99.6 153.8,108.6 120.4,143 		"/>
		<path class="st1" d="M109.9,154.2c0,4.6,3.6,8.3,8.2,8.3l0,0c4.5,0,8.1-3.7,8.1-8.3v-17.7c0-4.6-3.6-8.3-8.1-8.3l0,0
			c-4.5,0-8.2,3.7-8.2,8.3V154.2z"/>
	</g>
	<g>
		<g>
			<path class="st1" d="M49.4,158.1c-3.4-3-7.4-5-11.9-5.7c-3.1-0.5-4.5,4.3-1.3,4.8c3.6,0.6,6.9,2,9.7,4.5
				C48.3,163.7,51.8,160.2,49.4,158.1L49.4,158.1z"/>
		</g>
	</g>
	<g>
		<g>
			<path class="st1" d="M32.9,141.8c-3.4-3-7.4-5-11.9-5.7c-3.1-0.5-4.5,4.3-1.3,4.8c3.6,0.6,6.9,2,9.7,4.5
				C31.8,147.4,35.4,143.9,32.9,141.8L32.9,141.8z"/>
		</g>
	</g>
	<g>
		<g>
			<path class="st1" d="M74.9,158c2.8-2.4,6.1-3.8,9.7-4.5c3.2-0.5,1.8-5.4-1.3-4.8c-4.5,0.8-8.5,2.8-11.9,5.7
				C68.9,156.5,72.5,160.1,74.9,158L74.9,158z"/>
		</g>
	</g>
	<g>
		<g>
			<path class="st1" d="M91.4,141.7c2.8-2.4,6.1-3.8,9.7-4.5c3.2-0.5,1.8-5.4-1.3-4.8c-4.5,0.8-8.5,2.8-11.9,5.7
				C85.4,140.2,88.9,143.8,91.4,141.7L91.4,141.7z"/>
		</g>
	</g>
</g>
<g id="van">
	<g id="Layer_24">
	</g>
	<g id="Layer_27">
	</g>
	<g id="Layer_28">
	</g>
	<g id="Layer_26">
	</g>
</g>
</svg>
