<?xml version="1.0" encoding="utf-8"?>
<!-- Generator: Adobe Illustrator 19.0.1, SVG Export Plug-In . SVG Version: 6.00 Build 0)  -->
<svg version="1.1" xmlns="http://www.w3.org/2000/svg" xmlns:xlink="http://www.w3.org/1999/xlink" x="0px" y="0px"
	 viewBox="0 0 187.3 186.8" style="enable-background:new 0 0 187.3 186.8;" xml:space="preserve">
<style type="text/css">
	.st0{display:none;fill:#312783;}
	.st1{fill:#FFFFFF;}
	.st2{display:none;fill:#D63A20;}
	.st3{display:none;}
	.st4{display:inline;fill:#D63A20;}
</style>
<g id="man_1_">
	<rect x="-348.7" y="-385.1" class="st0" width="1230" height="1110"/>
	<g id="man">
	</g>
	<g id="box">
	</g>
	<g id="Layer_44">
	</g>
	<g id="Layer_38">
	</g>
</g>
<g id="man_and_van">
	<g id="Layer_40">
	</g>
</g>
<g id="resource">
	<g id="Layer_16">
	</g>
</g>
<g id="Layer_29">
	<g id="Layer_31">
	</g>
</g>
<g id="sparks">
</g>
<g id="drill">
</g>
<g id="arm_and_fork">
	<g id="Layer_5">
	</g>
	<g id="Layer_2">
	</g>
	<g id="Layer_4">
	</g>
	<g id="Layer_8">
	</g>
	<g id="Layer_6">
	</g>
	<g id="Layer_3">
	</g>
	<g id="Layer_7">
	</g>
</g>
<g id="truck">
	<g id="Layer_14">
	</g>
	<g id="Layer_13">
	</g>
	<g id="Layer_12">
	</g>
</g>
<g id="ship">
	<g id="Layer_25">
	</g>
	<g id="Layer_22">
	</g>
	<g id="Layer_21">
	</g>
	<g id="Layer_20">
	</g>
	<g id="Layer_18">
	</g>
</g>
<g id="Layer_36">
	<g id="Layer_35" class="st3">
	</g>
	<g id="Layer_34">
	</g>
	<g id="Layer_9">
	</g>
</g>
<g id="van">
	<g id="Layer_24">
	</g>
	<g id="Layer_27">
	</g>
	<g id="Layer_28">
		<circle class="st1" cx="45.5" cy="111.4" r="10.9"/>
		<circle class="st1" cx="144.6" cy="111.4" r="10.9"/>
	</g>
	<g id="Layer_26">
		<path class="st1" d="M171.6,99.7c0,0-2.2,0.5-1.5,0c0.7-0.5,0.5-6.5,0-9c-0.5-2.5-0.9-3.7-4.2-5.3c-3-1.5-16.1-4.9-18.4-5.5
			c0.2,0.4,0,0.6,0,0.6s-0.1,1.2-1.2,1.2c-1.1,0-18.8-16.3-18.8-16.5c0-0.2,0.8-0.4,1.2-0.5c-1.2-0.4-6.3-1.5-25.5-3
			c-23.3-1.8-79.9,0-79.9,0c-5.4,0.2-5.8,38.6-6.6,39c-0.8,0.3-2,3-1,5.8c0.8,2.5,5.2,1.6,5.2,1.6l10.4,1.7
			c0.9-6.9,6.8-12.2,13.9-12.2c7.3,0,13.3,5.6,14,12.8h2.3h68.9c0.7-7.2,6.7-12.8,14-12.8c7.3,0,13.3,5.6,14,12.8h3
			c0,0,7.3,0,9.3-0.7c2.1-0.7,2.3-6.1,2.4-7.8C173.5,99.9,171.6,99.7,171.6,99.7z M135.4,80.6c-1.2,1.1-10.8,0.5-17.3,0.2
			c-6.5-0.3-7-0.4-7-0.4l0.2-15c0,0,11.8,0.1,13.9,1.2c2.1,1.1,8.7,6.7,8.8,7.1C134.2,74.1,136.6,79.5,135.4,80.6z"/>
	</g>
</g>
</svg>
