<?xml version="1.0" encoding="utf-8"?>
<!-- Generator: Adobe Illustrator 19.0.1, SVG Export Plug-In . SVG Version: 6.00 Build 0)  -->
<svg version="1.1" xmlns="http://www.w3.org/2000/svg" xmlns:xlink="http://www.w3.org/1999/xlink" x="0px" y="0px"
	 viewBox="0 0 189 188.7" style="enable-background:new 0 0 189 188.7;" xml:space="preserve">
<style type="text/css">
	.st0{display:none;fill:#312783;}
	.st1{fill:#FFFFFF;}
	.st2{display:none;fill:#D63A20;}
	.st3{display:none;}
	.st4{display:inline;fill:#D63A20;}
</style>
<g id="man_1_">
	<rect x="-146.2" y="-169.7" class="st0" width="1230" height="1110"/>
	<g id="man">
	</g>
	<g id="box">
	</g>
	<g id="Layer_44">
	</g>
	<g id="Layer_38">
	</g>
</g>
<g id="man_and_van">
	<g id="Layer_40">
	</g>
</g>
<g id="resource">
	<g id="Layer_16">
	</g>
	<path class="st1" d="M28.7,95.8c-6.3-3.7-8.5-4.7-2.4-6.7L124.7,56c7.3,1.5,12.5,3.4,17.3,4.6l27.3,8.8c-6.4,3.4-30.5,14-37.3,16.7
		l-63.3,25.4c-5.6,2.8-8.5,1.3-14.5-2.9L28.7,95.8z"/>
	<path class="st1" d="M173.6,97.5c-3.8,3.2-8.3,4.7-13.9,7.7l-89.4,41c-6.3,2.3-7.8,1-7.1,0.4v-20.1c0-6,0-9.8,0-13.6l106.1-43.5
		c0.6,5.8,1.4,8,2.1,14.1L173.6,97.5z"/>
	<path class="st1" d="M63.2,147.2c-0.3,0.5-9.8-5.4-15.9-8.1l-26.6-14.6c-0.6-0.7-0.2-5.2-0.1-7.7l0.3-13.3c0.4-6-0.1-11.4,1.8-12.1
		L59.2,111c5.7,2.9,1,0.4,4,1.9V147.2z"/>
</g>
<g id="Layer_29">
	<g id="Layer_31">
	</g>
</g>
<g id="sparks">
</g>
<g id="drill">
</g>
<g id="arm_and_fork">
	<g id="Layer_5">
	</g>
	<g id="Layer_2">
	</g>
	<g id="Layer_4">
	</g>
	<g id="Layer_8">
	</g>
	<g id="Layer_6">
	</g>
	<g id="Layer_3">
	</g>
	<g id="Layer_7">
	</g>
</g>
<g id="truck">
	<g id="Layer_14">
	</g>
	<g id="Layer_13">
	</g>
	<g id="Layer_12">
	</g>
</g>
<g id="ship">
	<g id="Layer_25">
	</g>
	<g id="Layer_22">
	</g>
	<g id="Layer_21">
	</g>
	<g id="Layer_20">
	</g>
	<g id="Layer_18">
	</g>
</g>
<g id="Layer_36">
	<g id="Layer_35" class="st3">
	</g>
	<g id="Layer_34">
	</g>
	<g id="Layer_9">
	</g>
</g>
<g id="van">
	<g id="Layer_24">
	</g>
	<g id="Layer_27">
	</g>
	<g id="Layer_28">
	</g>
	<g id="Layer_26">
	</g>
</g>
</svg>
