<?xml version="1.0" encoding="utf-8"?>
<!-- Generator: Adobe Illustrator 19.0.1, SVG Export Plug-In . SVG Version: 6.00 Build 0)  -->
<svg version="1.1" xmlns="http://www.w3.org/2000/svg" xmlns:xlink="http://www.w3.org/1999/xlink" x="0px" y="0px"
	 viewBox="0 0 183.1 185.5" style="enable-background:new 0 0 183.1 185.5;" xml:space="preserve">
<style type="text/css">
	.st0{fill:#D63A20;}
	.st1{fill:#FFFFFF;}
	.st2{fill:#4DB167;}
	.st3{display:none;}
	.st4{display:inline;}
	.st5{display:inline;fill:#FFFFFF;}
	.st6{display:inline;fill:#D63A20;}
</style>
<g id="man_1_">
	<g id="man">
	</g>
	<g id="box">
	</g>
	<g id="Layer_44">
	</g>
	<g id="Layer_38">
	</g>
</g>
<g id="man_and_van">
	<g id="Layer_40">
	</g>
</g>
<g id="resource">
	<g id="Layer_16">
	</g>
</g>
<g id="Layer_29">
	<g id="Layer_31">
	</g>
</g>
<g id="sparks">
</g>
<g id="drill">
</g>
<g id="arm_and_fork">
	<g id="Layer_5">
		<g>
			<circle class="st1" cx="102.4" cy="135.3" r="11.5"/>
			<circle class="st1" cx="45.2" cy="135.3" r="11.5"/>
			<path class="st1" d="M167.6,58.2c0,0-37.8-0.7-38-2.1c-0.2-1.3,0.6-18.4,0.1-18.4c-0.4-0.1-3.2-0.8-3.2-0.8l0.1,2.1h-0.6l0.1-0.5
				l-5.8-0.1l-0.8,1.3l-0.8-0.2c0,0-0.1-2.4-0.3-4.3c-0.3-1.8-0.9-3-1.8-3.4c-0.9-0.3-2.3,0.3-2.3,0.3s-1,2.2-0.8,2.8
				c0.2,0.6-1,0-1.3,0.8c0,0-0.6,1.6,0.1,2.2c0.7,0.5,0.5,3,0.5,3s-3.2-0.3-3.5,0.1c-0.3,0.4-1.1,1-1.2,3.8c-0.1,2.8,0,33.4,0,33.4
				h-3.2c0,0-1.1,0.4-1,1.1c0.1,0.7,0.5,1.1,1.1,1.1c0.7,0.1-0.1,9.7,0.5,10.1c0.6,0.4,2,0.1,2,0.1v12.5c0,0-1.7,3.4-2.1,2
				c-0.4-1.4-10.2-49.9-18.3-50.8c-8.2-0.9-40.9-3.1-41.4-2.2c-0.5,0.9-0.1,2.2-0.1,2.2l-4.4,33.9c0,0-11.9-0.1-13.7,0.9
				c-1.8,1.1-2.9,10.2-1.2,10.3c1.7,0.1,3.8,0,3.8,0s0,5.9-0.9,7.7c-0.9,1.7-3.7,0.9-3.8,1.8c-0.1,0.9,0,6.3,0,6.3s1.1,1.8,1.4,2.2
				c0.3,0.4-1.5,1.5-1.4,2.5c0.1,1.1-0.7,9.5,0.6,10.7c0.7,0.6,2.3,1.2,3.8,1.6c1.4-7.1,7.7-12.5,15.2-12.5c7.9,0,14.5,6,15.4,13.7
				c8.4,0.2,17.8,0.3,26.4,0.4c0.7-7.9,7.3-14.1,15.4-14.1c8,0,14.6,6.1,15.4,13.9c0.3-0.1,0.5-0.1,0.5-0.2c0.3-1.4,0-73.6,0-73.6
				l4.7-0.3v-0.8l1.4,0c0,0,0.5,2.5,1.9,2.6c1.3,0.1,45.6,0.4,46.7,0c1.1-0.4-14.3-1.3-15.5-1.4c-1.2,0,19.6-0.7,20.2-0.7
				C178.2,59.4,167.6,58.2,167.6,58.2z M96.8,106.6c-1.6,1.3-6.5,4.1-6.5,4.1H75.8c0,0,0.3-4.4,0-6.1c-0.3-1.7-2.5-4-2.5-4H54.7
				c0,0-2.3-1.1-4.4-2.8c-2.1-1.7,2-38.9,2-38.9s26.6,0.5,32,1.4C89.6,61.2,96,85,98.9,95.2C101.7,105.3,98.6,105.2,96.8,106.6z"/>
		</g>
	</g>
	<g id="Layer_2">
	</g>
	<g id="Layer_4">
	</g>
	<g id="Layer_8">
	</g>
	<g id="Layer_6">
	</g>
	<g id="Layer_3">
	</g>
	<g id="Layer_7">
	</g>
</g>
<g id="truck" class="st3">
	<g id="Layer_14" class="st4">
	</g>
	<g id="Layer_13" class="st4">
	</g>
	<g id="Layer_12" class="st4">
	</g>
</g>
<g id="ship" class="st3">
	<g id="Layer_25" class="st4">
	</g>
	<g id="Layer_22" class="st4">
	</g>
	<g id="Layer_21" class="st4">
	</g>
	<g id="Layer_20" class="st4">
	</g>
	<g id="Layer_18" class="st4">
	</g>
</g>
<g id="Layer_36" class="st3">
	<g id="Layer_35" class="st4">
	</g>
	<g id="Layer_34" class="st4">
	</g>
	<g id="Layer_9" class="st4">
	</g>
</g>
<g id="van" class="st3">
	<g id="Layer_24" class="st4">
	</g>
	<g id="Layer_27" class="st4">
	</g>
	<g id="Layer_28" class="st4">
	</g>
	<g id="Layer_26" class="st4">
	</g>
</g>
</svg>
