<?xml version="1.0" encoding="utf-8"?>
<!-- Generator: Adobe Illustrator 19.0.1, SVG Export Plug-In . SVG Version: 6.00 Build 0)  -->
<svg version="1.1" xmlns="http://www.w3.org/2000/svg" xmlns:xlink="http://www.w3.org/1999/xlink" x="0px" y="0px"
	 viewBox="0 0 189 188" style="enable-background:new 0 0 189 188;" xml:space="preserve">
<style type="text/css">
	.st0{display:none;fill:#312783;}
	.st1{fill:#FFFFFF;}
	.st2{display:none;fill:#D63A20;}
	.st3{display:none;}
	.st4{display:inline;fill:#D63A20;}
</style>
<g id="man_1_">
	<rect x="-146.2" y="-384.1" class="st0" width="1230" height="1110"/>
	<g id="man">
	</g>
	<g id="box">
	</g>
	<g id="Layer_44">
	</g>
	<g id="Layer_38">
	</g>
</g>
<g id="man_and_van">
	<g id="Layer_40">
	</g>
</g>
<g id="resource">
	<g id="Layer_16">
	</g>
</g>
<g id="Layer_29">
	<g id="Layer_31">
	</g>
</g>
<g id="sparks">
</g>
<g id="drill">
</g>
<g id="arm_and_fork">
	<g id="Layer_5">
	</g>
	<g id="Layer_2">
	</g>
	<g id="Layer_4">
	</g>
	<g id="Layer_8">
	</g>
	<g id="Layer_6">
	</g>
	<g id="Layer_3">
	</g>
	<g id="Layer_7">
	</g>
</g>
<g id="truck">
	<g id="Layer_14">
	</g>
	<g id="Layer_13">
	</g>
	<g id="Layer_12">
	</g>
</g>
<g id="ship">
	<g id="Layer_25">
	</g>
	<path class="st1" d="M35.2,98.6L35.2,98.6c-3.1,0-3.4,0-5.6,0V85.1c0-3.1,2.5-3.3,5.6-3.3l0,0c3.1,0,5.6,0.2,5.6,3.3v13.6
		C38.4,98.6,38.3,98.6,35.2,98.6z"/>
	<rect x="138" y="79.8" class="st1" width="2.2" height="2.8"/>
	<g id="Layer_22">
		<rect x="48.5" y="93" class="st1" width="5.6" height="5.6"/>
		<rect x="54.3" y="93" class="st1" width="5.6" height="5.6"/>
		<rect x="60.1" y="93" class="st1" width="5.6" height="5.6"/>
		<rect x="65.9" y="93" class="st1" width="5.6" height="5.6"/>
		<rect x="71.7" y="93" class="st1" width="5.6" height="5.6"/>
		<rect x="77.5" y="93" class="st1" width="5.6" height="5.6"/>
		<rect x="83.3" y="93" class="st1" width="5.6" height="5.6"/>
		<rect x="89.1" y="93" class="st1" width="5.6" height="5.6"/>
		<rect x="94.9" y="93" class="st1" width="5.6" height="5.6"/>
		<rect x="100.7" y="93" class="st1" width="5.6" height="5.6"/>
		<rect x="106.5" y="93" class="st1" width="5.6" height="5.6"/>
		<rect x="112.3" y="93" class="st1" width="5.6" height="5.6"/>
		<rect x="118.2" y="93" class="st1" width="5.6" height="5.6"/>
		<rect x="124" y="93" class="st1" width="5.6" height="5.6"/>
		<rect x="129.8" y="93" class="st1" width="5.6" height="5.6"/>
		<rect x="135.6" y="93" class="st1" width="5.6" height="5.6"/>
		<rect x="141.4" y="93" class="st1" width="5.6" height="5.6"/>
		<rect x="147.2" y="93" class="st1" width="5.6" height="5.6"/>
		<rect x="48.5" y="87.2" class="st1" width="5.6" height="5.6"/>
		<rect x="54.3" y="87.2" class="st1" width="5.6" height="5.6"/>
		<rect x="60.1" y="87.2" class="st1" width="5.6" height="5.6"/>
		<rect x="65.9" y="87.2" class="st1" width="5.6" height="5.6"/>
		<rect x="71.7" y="87.2" class="st1" width="5.6" height="5.6"/>
		<rect x="77.5" y="87.2" class="st1" width="5.6" height="5.6"/>
		<rect x="83.3" y="87.2" class="st1" width="5.6" height="5.6"/>
		<rect x="89.1" y="87.2" class="st1" width="5.6" height="5.6"/>
		<rect x="94.9" y="87.2" class="st1" width="5.6" height="5.6"/>
		<rect x="100.7" y="87.2" class="st1" width="5.6" height="5.6"/>
		<rect x="106.5" y="87.2" class="st1" width="5.6" height="5.6"/>
		<rect x="112.3" y="87.2" class="st1" width="5.6" height="5.6"/>
		<rect x="118.2" y="87.2" class="st1" width="5.6" height="5.6"/>
		<rect x="124" y="87.2" class="st1" width="5.6" height="5.6"/>
		<rect x="129.8" y="87.2" class="st1" width="5.6" height="5.6"/>
		<rect x="135.6" y="87.2" class="st1" width="5.6" height="5.6"/>
		<rect x="141.4" y="87.2" class="st1" width="5.6" height="5.6"/>
		<rect x="147.2" y="87.2" class="st1" width="5.6" height="5.6"/>
	</g>
	<g id="Layer_21">
		<path class="st1" d="M140.4,96.4L140.4,96.4c-0.5,0-0.9-0.4-0.9-0.9l0.5-19.6c0-0.5-0.1-0.9,0.4-0.9l0,0c0.5,0,0.4,0.4,0.4,0.9
			l0.5,19.6C141.3,96,140.9,96.4,140.4,96.4z"/>
	</g>
	<g id="Layer_20">
		<path class="st1" d="M35.3,82.4h-0.5c-0.2,0-0.3-0.1-0.3-0.3V65.5c0-0.2,0.1-0.3,0.3-0.3h0.5c0.2,0,0.3,0.1,0.3,0.3v16.6
			C35.7,82.3,35.5,82.4,35.3,82.4z"/>
		<path class="st1" d="M26.2,102.4H15c-1.3,0-2.3-1-2.3-2.3v-4c0-1.3,1-2.3,2.3-2.3h11.2c1.3,0,2.3,1,2.3,2.3v4
			C28.5,101.4,27.5,102.4,26.2,102.4z"/>
	</g>
	<g id="Layer_18">
		<path class="st1" d="M166.8,111.8H28.7c-3.3,0-10.9-3.1-15.9-5.9l0-0.5c0-3.3,0-4.7,0-7.1l142.8-0.2c3-0.4,2.3-1.2,5.2-2.6l17-0.6
			C177.8,98.1,170.1,111.8,166.8,111.8z"/>
	</g>
</g>
<g id="Layer_36">
	<g id="Layer_35" class="st3">
	</g>
	<g id="Layer_34">
	</g>
	<g id="Layer_9">
	</g>
</g>
<g id="van">
	<g id="Layer_24">
	</g>
	<g id="Layer_27">
	</g>
	<g id="Layer_28">
	</g>
	<g id="Layer_26">
	</g>
</g>
</svg>
