<?xml version="1.0" encoding="utf-8"?>
<!-- Generator: Adobe Illustrator 19.0.1, SVG Export Plug-In . SVG Version: 6.00 Build 0)  -->
<svg version="1.1" xmlns="http://www.w3.org/2000/svg" xmlns:xlink="http://www.w3.org/1999/xlink" x="0px" y="0px"
	 viewBox="0 0 187.3 187.3" style="enable-background:new 0 0 187.3 187.3;" xml:space="preserve">
<style type="text/css">
	.st0{display:none;fill:#312783;}
	.st1{fill:#FFFFFF;}
	.st2{display:none;fill:#D63A20;}
	.st3{display:none;}
	.st4{display:inline;fill:#D63A20;}
</style>
<g id="man_1_">
	<rect x="-549.7" y="-171.1" class="st0" width="1230" height="1110"/>
	<g id="man">
	</g>
	<g id="box">
	</g>
	<g id="Layer_44">
	</g>
	<g id="Layer_38">
	</g>
</g>
<g id="man_and_van">
	<g id="Layer_40">
	</g>
</g>
<g id="resource">
	<g id="Layer_16">
	</g>
</g>
<g id="Layer_29">
	<g id="Layer_31">
	</g>
</g>
<g id="sparks">
</g>
<g id="drill">
</g>
<g id="arm_and_fork">
	<g id="Layer_5">
		<path class="st2" d="M184.9,93.4c0,50.5-41,91.5-91.5,91.5c-50.5,0-91.5-41-91.5-91.5c0-50.5,41-91.5,91.5-91.5
			C144,1.9,184.9,42.9,184.9,93.4z"/>
	</g>
	<g id="Layer_2">
	</g>
	<g id="Layer_4">
		<g>
			<g>
				<path class="st1" d="M143.9,61.3c-4.2-3.5-9-8.2-14.7-8.8c-4.6-0.5-8,2.3-10.9,5.5c-1.1,1.2,0.7,3,1.8,1.8
					c3.6-3.9,7.2-6,12.4-3.6c3.6,1.7,6.6,4.5,9.7,7C143.3,64.1,145.1,62.3,143.9,61.3L143.9,61.3z"/>
			</g>
		</g>
	</g>
	<g id="Layer_8">
		<g>
			<g>
				<path class="st1" d="M121.2,95.1c-3-1.6-6.2-3-8.9-5c-5.1-3.8-5.6-8.3-3.1-13.8c0.7-1.5-1.5-2.7-2.2-1.3
					c-2,4.5-3.2,9.1-0.1,13.4c3.1,4.3,8.5,6.5,13.1,8.9C121.4,98,122.6,95.8,121.2,95.1L121.2,95.1z"/>
			</g>
		</g>
	</g>
	<g id="Layer_6">
		
			<ellipse transform="matrix(0.8349 0.5503 -0.5503 0.8349 58.6828 -53.9603)" class="st1" cx="119.3" cy="70.9" rx="10.8" ry="12.7"/>
		<path class="st1" d="M114.6,75.4c-1.4,2.2-4.3,2.7-6.5,1.3l0,0c-2.1-1.4-2.7-4.3-1.3-6.5l7-10.7c1.4-2.1,4.3-2.7,6.5-1.3l0,0
			c2.1,1.4,2.7,4.3,1.3,6.5L114.6,75.4z"/>
	</g>
	<g id="Layer_3">
		
			<rect x="144.3" y="74.6" transform="matrix(0.835 0.5503 -0.5503 0.835 67.9236 -72.5989)" class="st1" width="21.4" height="4.6"/>
		<circle class="st1" cx="163.9" cy="82.8" r="2.3"/>
		
			<rect x="127.4" y="70.7" transform="matrix(-0.9994 3.592856e-002 -3.592856e-002 -0.9994 276.6166 140.9391)" class="st1" width="19.4" height="4.6"/>
		
			<ellipse transform="matrix(-0.9994 3.578576e-002 -3.578576e-002 -0.9994 257.273 141.9998)" class="st1" cx="127.4" cy="73.3" rx="2.1" ry="2.3"/>
		
			<rect x="140.4" y="66.1" transform="matrix(0.3756 0.9268 -0.9268 0.3756 154.1304 -92.0528)" class="st1" width="9.9" height="4.6"/>
		<circle class="st1" cx="147.2" cy="73" r="2.3"/>
		<path class="st1" d="M144.4,65.9c-1.2,0.5-2.5-0.1-3-1.3c-0.5-1.2,0.1-2.5,1.3-3c1.2-0.5,2.5,0.1,3,1.3
			C146.1,64.1,145.6,65.4,144.4,65.9z"/>
		<circle class="st1" cx="124.6" cy="65" r="4.7"/>
		
			<rect x="123.9" y="62.2" transform="matrix(-0.9994 3.586354e-002 -3.586354e-002 -0.9994 269.3584 124.1562)" class="st1" width="19.4" height="4.6"/>
	</g>
	<g id="Layer_7">
		<rect x="128" y="99" transform="matrix(0.835 0.5503 -0.5503 0.835 78.6212 -59.5971)" class="st1" width="21.4" height="4.6"/>
		<circle class="st1" cx="147.6" cy="107.2" r="2.3"/>
		
			<rect x="118.3" y="84.1" transform="matrix(-0.3612 -0.9325 0.9325 -0.3612 93.6186 236.8677)" class="st1" width="19.4" height="4.6"/>
		<path class="st1" d="M123.7,75.4c-1.2,0.5-1.8,1.7-1.4,2.8c0.4,1.1,1.7,1.6,2.9,1.1c1.2-0.5,1.8-1.7,1.4-2.8
			C126.2,75.4,124.9,74.9,123.7,75.4z"/>
		
			<rect x="122" y="93.5" transform="matrix(0.9998 -2.032228e-002 2.032228e-002 0.9998 -1.9215 2.6007)" class="st1" width="9.9" height="4.6"/>
		<circle class="st1" cx="132" cy="95.7" r="2.3"/>
		<circle class="st1" cx="122" cy="95.9" r="2.3"/>
		<circle class="st1" cx="115.7" cy="78.1" r="4.7"/>
		
			<rect x="109.1" y="84.2" transform="matrix(-0.3611 -0.9325 0.9325 -0.3611 81.0167 228.525)" class="st1" width="19.4" height="4.6"/>
	</g>
</g>
<g id="truck">
	<g id="Layer_14">
	</g>
	<g id="Layer_13">
	</g>
	<g id="Layer_12">
	</g>
</g>
<g id="ship">
	<g id="Layer_25">
	</g>
	<g id="Layer_22">
	</g>
	<g id="Layer_21">
	</g>
	<g id="Layer_20">
	</g>
	<g id="Layer_18">
	</g>
</g>
<g id="Layer_36">
	<g id="Layer_35" class="st3">
	</g>
	<g id="Layer_34">
	</g>
	<g id="Layer_9">
		
			<rect x="83" y="51.7" transform="matrix(0.8349 0.5504 -0.5504 0.8349 47.4835 -44.5881)" class="st1" width="30.2" height="10.3"/>
		<path class="st1" d="M87.3,49.8c-2.2,3.3-6.6,4.2-10,2l0,0c-3.3-2.2-4.2-6.6-2-10l0,0c2.2-3.3,6.6-4.2,10-2l0,0
			C88.6,42,89.5,46.4,87.3,49.8L87.3,49.8z"/>
		
			<rect x="30.2" y="61.8" transform="matrix(0.7022 -0.712 0.712 0.7022 -29.9021 62.4245)" class="st1" width="58.9" height="10.3"/>
		<path class="st1" d="M48.2,78.9c2.9,2.9,2.9,7.5,0,10.3l-13.2,13.2c-2.9,2.9-7.5,2.9-10.3,0l0,0c-2.9-2.9-2.9-7.5,0-10.3
			l13.2-13.2C40.7,76.1,45.4,76.1,48.2,78.9L48.2,78.9z"/>
		<path class="st1" d="M48.2,115.6c2.9-2.9,2.9-7.5,0-10.3L35.1,92.1c-2.9-2.9-7.5-2.9-10.3,0l0,0c-2.9,2.9-2.9,7.5,0,10.3
			l13.2,13.2C40.7,118.5,45.4,118.5,48.2,115.6L48.2,115.6z"/>
		<polygon class="st1" points="71,131.8 44,104 36.7,111.3 63.7,139.1 		"/>
		<path class="st1" d="M72.2,148.2c0,3.7-3,6.7-6.6,6.7l0,0c-3.6,0-6.6-3-6.6-6.7v-14.3c0-3.7,3-6.7,6.6-6.7l0,0
			c3.6,0,6.6,3,6.6,6.7V148.2z"/>
	</g>
</g>
<g id="van">
	<g id="Layer_24">
	</g>
	<g id="Layer_27">
	</g>
	<g id="Layer_28">
	</g>
	<g id="Layer_26">
	</g>
</g>
</svg>
