<?xml version="1.0" encoding="utf-8"?>
<!-- Generator: Adobe Illustrator 19.0.1, SVG Export Plug-In . SVG Version: 6.00 Build 0)  -->
<svg version="1.1" xmlns="http://www.w3.org/2000/svg" xmlns:xlink="http://www.w3.org/1999/xlink" x="0px" y="0px"
	 viewBox="0 0 187.3 187.3" style="enable-background:new 0 0 187.3 187.3;" xml:space="preserve">
<style type="text/css">
	.st0{display:none;fill:#312783;}
	.st1{fill:#FFFFFF;}
	.st2{display:none;fill:#D63A20;}
	.st3{display:none;}
	.st4{display:inline;fill:#D63A20;}
</style>
<g id="man_1_">
	<rect x="-348.7" y="-171.1" class="st0" width="1230" height="1110"/>
	<g id="man">
	</g>
	<g id="box">
	</g>
	<g id="Layer_44">
	</g>
	<g id="Layer_38">
	</g>
</g>
<g id="man_and_van">
	<g id="Layer_40">
	</g>
</g>
<g id="resource">
	<g id="Layer_16">
	</g>
</g>
<g id="Layer_29">
	<g id="Layer_31">
	</g>
</g>
<g id="sparks">
</g>
<g id="drill">
</g>
<g id="arm_and_fork">
	<g id="Layer_5">
	</g>
	<g id="Layer_2">
	</g>
	<g id="Layer_4">
	</g>
	<g id="Layer_8">
	</g>
	<g id="Layer_6">
	</g>
	<g id="Layer_3">
	</g>
	<g id="Layer_7">
	</g>
</g>
<g id="truck">
	<g id="Layer_14">
	</g>
	<g id="Layer_13">
	</g>
	<g id="Layer_12">
		<path class="st1" d="M134,106.4c0,2.1-1.7,3.7-3.7,3.7H32.8c-2.1,0-3.7-1.7-3.7-3.7V72.2c0-2.1,1.7-3.7,3.7-3.7h97.5
			c2.1,0,3.7,1.7,3.7,3.7V106.4z"/>
		<circle class="st1" cx="136.9" cy="117.2" r="5.5"/>
		<circle class="st1" cx="62.4" cy="118.2" r="5.5"/>
		<path class="st1" d="M161.1,112.3h-0.9l0.1-0.8c0,0,0.1,0.2,0.7,0c0.6-0.2,0.4-6.2,0-10.9c-0.5,0-1.4-0.1-1.5-0.3
			c-0.1-0.2-0.1-1-0.3-2.9c-0.3-1.8-1.8-6.6-2.7-8.7c-0.4-1-0.4-1.5-0.2-1.7c-0.4-0.6-0.7-1-1-1.3c-1.8-1.8-27.1-2.5-27.1-2.5
			c-0.6,0-1.4,18.2-1.6,20.4c-0.2,2.1-0.5,2-0.5,2l-1.1,0h-0.5v3.9h-0.8h-87h-4.3l-5.7,2.8v5.7h14.7c0-4.3,3.5-7.8,7.8-7.8
			c2.7,0,5.1,1.4,6.5,3.5c1.4-2.1,3.8-3.5,6.5-3.5c4.3,0,7.8,3.5,7.8,7.8h50.4h8.6c0-0.3-0.1-0.6-0.1-0.9c0-4.3,3.5-7.8,7.8-7.8
			c4.3,0,7.8,3.5,7.8,7.8c0,0.3,0,0.6-0.1,0.9c2.2,0,6.6,0,10,0c4.7,0.1,5.8-0.8,6.7-1.1C162.3,116.8,161.1,112.3,161.1,112.3z
			 M153.4,99.4c-0.5,0.3-13.2-2.9-13.6-3.1c-0.5-0.3-0.3-6.3-0.3-7.7c0-1.3,1.3-1.1,1.3-1.1s7.4,0.4,9.2,0.5
			c1.7,0.2,2.9,0.3,3.3,0.8c0.5,0.6,0.7,4,0.9,6.7C154.3,98.1,153.9,99,153.4,99.4z"/>
		<circle class="st1" cx="49.3" cy="118.1" r="5.5"/>
	</g>
</g>
<g id="ship">
	<g id="Layer_25">
	</g>
	<g id="Layer_22">
	</g>
	<g id="Layer_21">
	</g>
	<g id="Layer_20">
	</g>
	<g id="Layer_18">
	</g>
</g>
<g id="Layer_36">
	<g id="Layer_35" class="st3">
	</g>
	<g id="Layer_34">
	</g>
	<g id="Layer_9">
	</g>
</g>
<g id="van">
	<g id="Layer_24">
	</g>
	<g id="Layer_27">
	</g>
	<g id="Layer_28">
	</g>
	<g id="Layer_26">
	</g>
</g>
</svg>
