<?xml version="1.0" encoding="utf-8"?>
<!-- Generator: Adobe Illustrator 19.0.1, SVG Export Plug-In . SVG Version: 6.00 Build 0)  -->
<svg version="1.1" xmlns="http://www.w3.org/2000/svg" xmlns:xlink="http://www.w3.org/1999/xlink" x="0px" y="0px"
	 viewBox="0 0 191.7 194.2" style="enable-background:new 0 0 191.7 194.2;" xml:space="preserve">
<style type="text/css">
	.st0{display:none;fill:#312783;}
	.st1{fill:#FFFFFF;}
	.st2{display:none;fill:#D63A20;}
	.st3{display:none;}
	.st4{display:inline;fill:#D63A20;}
</style>
<g id="man_1_">
	<rect x="-346.5" y="-582.7" class="st0" width="1230" height="1110"/>
	<g id="man">
	</g>
	<g id="box">
	</g>
	<g id="Layer_44">
	</g>
	<g id="Layer_38">
	</g>
</g>
<g id="man_and_van">
	<rect x="52" y="46.8" class="st1" width="29.6" height="56.8"/>
	<path class="st1" d="M61.2,97.2h-4.6c-2.5,0-4.5,2-4.5,4.5v58.7c0,2.5,2,4.5,4.5,4.5h4.6c2.5,0,4.5-2,4.5-4.5v-58.7
		C65.6,99.3,63.6,97.2,61.2,97.2z"/>
	<path class="st1" d="M77.1,97.2h-4.6c-2.5,0-4.5,2-4.5,4.5v58.7c0,2.5,2,4.5,4.5,4.5h4.6c2.5,0,4.5-2,4.5-4.5v-58.7
		C81.6,99.3,79.6,97.2,77.1,97.2z"/>
	<circle class="st1" cx="66.8" cy="32.5" r="11.9"/>
	<path class="st1" d="M88.3,103.9L88.3,103.9c2.6,0,4.7-2.1,4.7-4.7l0.1-39.9c0-0.1,0-0.1,0-0.2c-0.3-5.4-3.5-12.2-11.8-12.3
		c-0.4,0-0.8,0.4-0.8,0.8v16.9c0,0.4,0.3,0.7,0.7,0.8c1.5,0.2,1.7,1.4,1.7,3.1v30.1C82.8,101.4,85.3,103.9,88.3,103.9z"/>
	<path class="st1" d="M45.5,103.9L45.5,103.9c-2.6,0-4.7-2.1-4.7-4.7l-0.1-39.9c0-0.1,0-0.1,0-0.2c0.3-5.4,3.5-12.2,11.8-12.3
		c0.4,0,0.8,0.4,0.8,0.8v16.9c0,0.4-0.3,0.7-0.7,0.8c-1.5,0.2-1.7,1.4-1.7,3.1v30.1C50.9,101.4,48.5,103.9,45.5,103.9z"/>
	<g id="Layer_40">
		<circle class="st1" cx="112.6" cy="118.8" r="5.7"/>
		<circle class="st1" cx="164.5" cy="118.8" r="5.7"/>
	</g>
	<g>
		<path class="st1" d="M178.7,112.6c0,0-1.1,0.2-0.8,0c0.4-0.2,0.2-3.4,0-4.7c-0.2-1.3-0.5-1.9-2.2-2.8c-1.6-0.8-8.5-2.6-9.6-2.9
			c0.1,0.2,0,0.3,0,0.3s0,0.6-0.6,0.6c-0.6,0-9.8-8.5-9.8-8.7c0-0.1,0.4-0.2,0.7-0.3c-0.6-0.2-3.3-0.8-13.4-1.6
			c-12.2-1-41.9,0-41.9,0c-2.8,0.1-3,20.2-3.4,20.4c-0.4,0.2-1,1.5-0.5,3c0.4,1.3,2.7,0.8,2.7,0.8l5.4,0.9c0.5-3.6,3.5-6.4,7.3-6.4
			c3.8,0,7,2.9,7.3,6.7h1.2h36.1c0.3-3.7,3.5-6.7,7.3-6.7c3.8,0,7,2.9,7.3,6.7h1.6c0,0,3.8,0,4.9-0.4c1.1-0.4,1.2-3.2,1.3-4.1
			C179.7,112.7,178.7,112.6,178.7,112.6z M111.7,102.7c-0.6,0.6-1.7,1-3,1c-0.6,0-1.1,0-1.6-0.1v-6.7c0.5-0.1,1.2-0.1,1.9-0.1
			c1.3,0,2.1,0.3,2.7,0.8c0.6,0.6,1,1.3,1,2.4C112.7,101.1,112.3,102,111.7,102.7z M117.7,101.3h-3.4c0,1.2,0.8,1.7,1.7,1.7
			c0.6,0,1-0.1,1.3-0.3l0.2,0.6c-0.3,0.1-0.8,0.3-1.6,0.3c-1.5,0-2.4-1-2.4-2.5s0.9-2.6,2.3-2.6c1.6,0,2,1.4,2,2.3
			C117.7,101.1,117.7,101.2,117.7,101.3z M119.7,103.6h-0.9v-7.1h0.9V103.6z M122.1,103.6h-0.9v-4.9h0.9V103.6z M121.6,97.9
			c-0.3,0-0.5-0.2-0.5-0.5c0-0.3,0.2-0.6,0.6-0.6c0.3,0,0.5,0.2,0.5,0.6C122.2,97.7,122,97.9,121.6,97.9z M125.6,103.6h-0.8
			l-1.8-4.9h0.9l1,2.7c0.2,0.4,0.3,0.8,0.4,1.2h0c0.1-0.4,0.3-0.8,0.4-1.2l0.9-2.7h0.9L125.6,103.6z M132.2,101.3h-3.4
			c0,1.2,0.8,1.7,1.7,1.7c0.6,0,1-0.1,1.3-0.3l0.2,0.6c-0.3,0.1-0.8,0.3-1.6,0.3c-1.5,0-2.4-1-2.4-2.5s0.9-2.6,2.3-2.6
			c1.6,0,2,1.4,2,2.3C132.2,101.1,132.2,101.2,132.2,101.3z M135.7,99.5c-0.1,0-0.2,0-0.3,0c-0.6,0-1.1,0.5-1.2,1.1
			c0,0.1,0,0.3,0,0.4v2.6h-0.9v-3.3c0-0.6,0-1.1,0-1.5h0.8l0,1h0c0.2-0.7,0.8-1.1,1.3-1.1c0.1,0,0.2,0,0.3,0V99.5z M139.4,102.2
			c-0.6,1.7-1.1,2.5-1.7,3c-0.4,0.4-0.9,0.5-1.1,0.6l-0.2-0.7c0.2-0.1,0.5-0.2,0.8-0.4c0.2-0.2,0.5-0.5,0.7-1c0-0.1,0.1-0.2,0.1-0.2
			c0-0.1,0-0.1-0.1-0.2l-1.8-4.5h1l1.1,2.9c0.1,0.3,0.2,0.7,0.3,1h0c0.1-0.3,0.2-0.7,0.3-1l1-2.9h0.9L139.4,102.2z M159.7,102.6
			c-0.7,0.6-5.6,0.3-9.1,0.1c-3.4-0.1-3.7-0.2-3.7-0.2l0.1-7.9c0,0,6.2,0,7.3,0.6c1.1,0.6,4.6,3.5,4.6,3.7
			C159,99.2,160.3,102,159.7,102.6z"/>
		<path class="st1" d="M115.7,99.2c-0.9,0-1.3,0.8-1.4,1.4h2.6C116.9,100.1,116.7,99.2,115.7,99.2z"/>
		<path class="st1" d="M130.1,99.2c-0.9,0-1.3,0.8-1.4,1.4h2.6C131.4,100.1,131.1,99.2,130.1,99.2z"/>
		<path class="st1" d="M109,97.5c-0.5,0-0.8,0-1,0.1v5.3c0.2,0,0.5,0,0.9,0c1.9,0,2.9-1,2.9-2.9C111.8,98.5,110.9,97.5,109,97.5z"/>
	</g>
</g>
<g id="resource">
	<g id="Layer_16">
	</g>
</g>
<g id="Layer_29">
	<g id="Layer_31">
	</g>
</g>
<g id="sparks">
</g>
<g id="drill">
</g>
<g id="arm_and_fork">
	<g id="Layer_5">
	</g>
	<g id="Layer_2">
	</g>
	<g id="Layer_4">
	</g>
	<g id="Layer_8">
	</g>
	<g id="Layer_6">
	</g>
	<g id="Layer_3">
	</g>
	<g id="Layer_7">
	</g>
</g>
<g id="truck">
	<g id="Layer_14">
	</g>
	<g id="Layer_13">
	</g>
	<g id="Layer_12">
	</g>
</g>
<g id="ship">
	<g id="Layer_25">
	</g>
	<g id="Layer_22">
	</g>
	<g id="Layer_21">
	</g>
	<g id="Layer_20">
	</g>
	<g id="Layer_18">
	</g>
</g>
<g id="Layer_36">
	<g id="Layer_35" class="st3">
	</g>
	<g id="Layer_34">
	</g>
	<g id="Layer_9">
	</g>
</g>
<g id="van">
	<g id="Layer_24">
	</g>
	<g id="Layer_27">
	</g>
	<g id="Layer_28">
	</g>
	<g id="Layer_26">
	</g>
</g>
</svg>
