<?xml version="1.0" encoding="utf-8"?>
<!-- Generator: Adobe Illustrator 19.0.1, SVG Export Plug-In . SVG Version: 6.00 Build 0)  -->
<svg version="1.1" xmlns="http://www.w3.org/2000/svg" xmlns:xlink="http://www.w3.org/1999/xlink" x="0px" y="0px"
	 viewBox="0 0 187.3 187.3" style="enable-background:new 0 0 187.3 187.3;" xml:space="preserve">
<style type="text/css">
	.st0{fill:#D63A20;}
	.st1{fill:#FFFFFF;}
	.st2{fill:#4DB167;}
</style>
<g id="man_1_">
	<g id="man">
	</g>
	<g id="box">
	</g>
	<g id="Layer_44">
	</g>
	<g id="Layer_38">
	</g>
</g>
<g id="man_and_van">
	<g id="Layer_40">
	</g>
</g>
<g id="resource">
	<g id="Layer_16">
	</g>
</g>
<g id="Layer_29">
	<g id="Layer_31">
	</g>
</g>
<g id="sparks">
</g>
<g id="drill">
</g>
<g id="arm_and_fork">
	<g id="Layer_5">
	</g>
	<g id="Layer_2">
	</g>
	<g id="Layer_4">
	</g>
	<g id="Layer_8">
	</g>
	<g id="Layer_6">
	</g>
	<g id="Layer_3">
	</g>
	<g id="Layer_7">
		<path class="st1" d="M165.2,80.9l-16.7-11l-2.8-7c-0.3-0.7-0.9-1.2-1.6-1.4c-0.1-0.1-0.1-0.1-0.2-0.2c-4.2-3.5-9-8.2-14.7-8.9
			c-4.4-0.5-7.7,2.1-10.6,5.1c-1.8-0.3-3.7,0.4-4.8,2l-0.7,1L88.3,44.3c-0.4-1.8-1.4-3.4-3.1-4.5c-3.3-2.2-7.8-1.3-10,2
			c-0.6,1-1,2-1.1,3.1L42.7,76.8c-1.8,0.1-3.5,0.8-4.8,2.1L24.7,92.1c-1.4,1.4-2.1,3.3-2.1,5.2c0,1.9,0.7,3.8,2.1,5.2l13.2,13.2
			c1.4,1.4,3.2,2.1,5.1,2.1L59,134.3v13.9c0,3.7,3,6.7,6.6,6.7c3.6,0,6.6-3,6.6-6.7v-14.3c0-3.4-2.5-6.2-5.7-6.6l-16.2-16.6
			c0-1.9-0.7-3.8-2.1-5.3l-8-8l8-8c1.5-1.5,2.2-3.5,2.1-5.5L80.7,53c0.6,0.1,1.3,0,1.9-0.1l24.8,16.4l-0.7,1c-1.1,1.6-1,3.6,0,5.1
			c-1.9,4.4-3,8.8,0.1,13c3.1,4.3,8.5,6.5,13.1,8.9c0.1,0.1,0.2,0.1,0.3,0.1c0.4,0.5,1.1,0.9,1.8,0.9l7.5-0.2l16.7,11
			c1,0.7,2.5,0.4,3.2-0.6c0.7-1.1,0.4-2.5-0.7-3.2l-14.6-9.6c0-0.7-0.4-1.3-0.9-1.7l-6.1-15.7c0.4-0.5,0.7-0.9,1.1-1.4
			c0.3-0.4,0.5-0.8,0.7-1.2l17.1-0.6c0.6,0.3,1.3,0.4,1.9,0.2l14.6,9.7c1.1,0.7,2.5,0.4,3.2-0.7C166.5,83,166.3,81.6,165.2,80.9z
			 M112.3,90.1c-4.9-3.6-5.5-7.9-3.5-13c0.7,1.8,1.9,3.3,3.5,4.3c0,0,0.1,0,0.1,0.1c0.2,0.2,0.4,0.4,0.6,0.5
			c0.5,0.4,1.1,0.6,1.8,0.7l4.4,11.4C116.9,92.9,114.5,91.7,112.3,90.1z M128.2,93.5l-4.2,0.1l-4.2-10.8c1.3-0.3,2.5-0.7,3.7-1.4
			L128.2,93.5z M128.5,62.4c-0.6-0.8-1.4-1.5-2.3-2.1c-1.6-1.1-3.4-1.5-5.3-1.5c3.3-3.2,6.7-4.9,11.5-2.7c3.1,1.4,5.7,3.7,8.3,5.9
			L128.5,62.4z M130.5,70.9c0.2-1.4,0.2-2.7,0-4l11.6-0.4l1.6,3.9L130.5,70.9z"/>
	</g>
</g>
<g id="truck">
	<g id="Layer_14">
	</g>
	<g id="Layer_13">
	</g>
	<g id="Layer_12">
	</g>
</g>
<g id="ship">
	<g id="Layer_25">
	</g>
	<g id="Layer_22">
	</g>
	<g id="Layer_21">
	</g>
	<g id="Layer_20">
	</g>
	<g id="Layer_18">
	</g>
</g>
<g id="Layer_36">
	<g id="Layer_35">
	</g>
	<g id="Layer_34">
	</g>
	<g id="Layer_9">
	</g>
</g>
<g id="van">
	<g id="Layer_24">
	</g>
	<g id="Layer_27">
	</g>
	<g id="Layer_28">
	</g>
	<g id="Layer_26">
	</g>
</g>
</svg>
