<?xml version="1.0" encoding="utf-8"?>
<!-- Generator: Adobe Illustrator 19.0.1, SVG Export Plug-In . SVG Version: 6.00 Build 0)  -->
<svg version="1.1" xmlns="http://www.w3.org/2000/svg" xmlns:xlink="http://www.w3.org/1999/xlink" x="0px" y="0px"
	 viewBox="0 0 187 188" style="enable-background:new 0 0 187 188;" xml:space="preserve">
<style type="text/css">
	.st0{display:none;fill:#312783;}
	.st1{fill:#FFFFFF;}
	.st2{display:none;fill:#D63A20;}
	.st3{display:none;}
	.st4{display:inline;fill:#D63A20;}
</style>
<g id="man_1_">
	<rect x="-549.7" y="-384.1" class="st0" width="1230" height="1110"/>
	<g id="man">
	</g>
	<g id="box">
	</g>
	<g id="Layer_44">
	</g>
	<g id="Layer_38">
	</g>
</g>
<g id="man_and_van">
	<g id="Layer_40">
	</g>
</g>
<g id="resource">
	<g id="Layer_16">
	</g>
</g>
<g id="Layer_29">
	<path class="st1" d="M173,96.5c-3.8,3.2-8.3,4.7-13.9,7.7l-89.4,41c-6.3,2.3-7.8,1-7.1,0.4v-20.1c0-6,0-9.8,0-13.6l106.1-43.5
		c0.6,5.8,1.4,8,2.1,14.1L173,96.5z"/>
	<path class="st1" d="M62.6,146.1c-0.3,0.5-9.8-5.4-15.9-8.1l-26.6-14.6c-0.6-0.7-0.2-5.2-0.1-7.7l0.3-13.3c0.4-6-0.1-11.4,1.8-12.1
		L58.5,110c5.7,2.9,1,0.4,4,1.9V146.1z"/>
	<g id="Layer_31">
	</g>
</g>
<g id="sparks">
	<g>
		<g>
			<path class="st1" d="M76.9,61.8c-3.4-3-7.4-5-11.9-5.7c-3.1-0.5-4.5,4.3-1.3,4.8c3.6,0.6,6.9,2,9.7,4.5
				C75.8,67.4,79.3,63.9,76.9,61.8L76.9,61.8z"/>
		</g>
	</g>
	<g>
		<g>
			<path class="st1" d="M60.4,45.5c-3.4-3-7.4-5-11.9-5.7c-3.1-0.5-4.5,4.3-1.3,4.8c3.6,0.6,6.9,2,9.7,4.5
				C59.3,51.1,62.9,47.6,60.4,45.5L60.4,45.5z"/>
		</g>
	</g>
	<g>
		<g>
			<path class="st1" d="M105.4,56.7c2.8-2.4,6.1-3.8,9.7-4.5c3.2-0.5,1.8-5.4-1.3-4.8c-4.5,0.8-8.5,2.8-11.9,5.7
				C99.4,55.2,103,58.8,105.4,56.7L105.4,56.7z"/>
		</g>
	</g>
</g>
<g id="drill">
	<g>
		<polygon class="st1" points="88.5,51.4 88.5,58.9 94.6,47.9 94.6,41.4 		"/>
		<polygon class="st1" points="94.6,16.2 94.6,-3.1 92.2,-3.4 92.2,-3.5 91.8,-3.4 91.5,-3.5 91.5,-3.4 88.5,-3.1 88.5,27.2 		"/>
		<polygon class="st1" points="94.6,57.4 88.5,67.4 88.5,74.3 94.6,63.3 		"/>
		<polygon class="st1" points="91.7,78.4 92,78.6 92,78.1 94.6,76.1 94.6,72.9 		"/>
		<polygon class="st1" points="91.2,78.3 91.2,78.6 91.4,78.5 		"/>
		<polygon class="st1" points="88.5,35.6 88.5,43 94.6,31.9 94.6,25.7 		"/>
	</g>
	<path class="st1" d="M141.3,59.6c-4.8-1.2-10-3.1-17.3-4.6l-29,9.7v7.4l-3.4,6.4l-3.4-2.5v-1.3l5.3-9.6l-4.7,1.6l-0.6,1V67
		l-62.6,21c-6.1,2-3.8,3,2.4,6.7l25.5,12.9c5.9,4.2,8.8,5.7,14.5,2.9l63.3-25.4c6.7-2.7,30.9-13.3,37.3-16.7L141.3,59.6z"/>
</g>
<g id="arm_and_fork">
	<g id="Layer_5">
	</g>
	<g id="Layer_2">
	</g>
	<g id="Layer_4">
	</g>
	<g id="Layer_8">
	</g>
	<g id="Layer_6">
	</g>
	<g id="Layer_3">
	</g>
	<g id="Layer_7">
	</g>
</g>
<g id="truck">
	<g id="Layer_14">
	</g>
	<g id="Layer_13">
	</g>
	<g id="Layer_12">
	</g>
</g>
<g id="ship">
	<g id="Layer_25">
	</g>
	<g id="Layer_22">
	</g>
	<g id="Layer_21">
	</g>
	<g id="Layer_20">
	</g>
	<g id="Layer_18">
	</g>
</g>
<g id="Layer_36">
	<g id="Layer_35" class="st3">
	</g>
	<g id="Layer_34">
	</g>
	<g id="Layer_9">
	</g>
	<g>
		<g>
			<path class="st1" d="M121.9,40.4c2.8-2.4,6.1-3.8,9.7-4.5c3.2-0.5,1.8-5.4-1.3-4.8c-4.5,0.8-8.5,2.8-11.9,5.7
				C115.9,38.9,119.4,42.5,121.9,40.4L121.9,40.4z"/>
		</g>
	</g>
</g>
<g id="van">
	<g id="Layer_24">
	</g>
	<g id="Layer_27">
	</g>
	<g id="Layer_28">
	</g>
	<g id="Layer_26">
	</g>
</g>
</svg>
