<?xml version="1.0" encoding="utf-8"?>
<!-- Generator: Adobe Illustrator 19.0.1, SVG Export Plug-In . SVG Version: 6.00 Build 0)  -->
<svg version="1.1" xmlns="http://www.w3.org/2000/svg" xmlns:xlink="http://www.w3.org/1999/xlink" x="0px" y="0px"
	 viewBox="0 0 189 193" style="enable-background:new 0 0 189 193;" xml:space="preserve">
<style type="text/css">
	.st0{display:none;fill:#312783;}
	.st1{fill:#FFFFFF;}
	.st2{display:none;fill:#D63A20;}
	.st3{display:none;}
	.st4{display:inline;fill:#D63A20;}
</style>
<g id="man_1_">
	<rect x="-146.2" y="-583.3" class="st0" width="1230" height="1110"/>
	<g id="man">
		<rect x="71" y="51" class="st1" width="29.6" height="56.8"/>
		<path class="st1" d="M80.2,101.4h-4.6c-2.5,0-4.5,2-4.5,4.5v58.7c0,2.5,2,4.5,4.5,4.5h4.6c2.5,0,4.5-2,4.5-4.5v-58.7
			C84.6,103.5,82.6,101.4,80.2,101.4z"/>
		<path class="st1" d="M96.1,101.4h-4.6c-2.5,0-4.5,2-4.5,4.5v58.7c0,2.5,2,4.5,4.5,4.5h4.6c2.5,0,4.5-2,4.5-4.5v-58.7
			C100.6,103.5,98.6,101.4,96.1,101.4z"/>
		<path class="st1" d="M107.3,108.1L107.3,108.1c2.6,0,4.7-2.1,4.7-4.7l0.1-39.9c0-0.1,0-0.1,0-0.2c-0.3-5.4-3.5-12.2-11.8-12.3
			c-0.4,0-0.8,0.4-0.8,0.8v16.9c0,0.4,0.3,0.7,0.7,0.8c1.5,0.2,1.7,1.4,1.7,3.1v30.1C101.8,105.6,104.3,108.1,107.3,108.1z"/>
		<path class="st1" d="M64.5,108.1L64.5,108.1c-2.6,0-4.7-2.1-4.7-4.7l-0.1-39.9c0-0.1,0-0.1,0-0.2C59.9,58,63.1,51.1,71.5,51
			c0.4,0,0.8,0.4,0.8,0.8v16.9c0,0.4-0.3,0.7-0.7,0.8c-1.5,0.2-1.7,1.4-1.7,3.1v30.1C69.9,105.6,67.5,108.1,64.5,108.1z"/>
	</g>
	<g id="box">
		<g>
			<polygon class="st1" points="104.9,143.3 104.9,144.7 109.1,139.4 108,139.4 			"/>
			<path class="st1" d="M106.6,143.5l-1.6,2.1V162l1.5,1.8c-0.5-0.9-0.8-2-0.8-3.1V147C105.6,145.7,106,144.5,106.6,143.5z"/>
			<path class="st1" d="M131.4,165.2l2.3-1.9v-19l-2.7-2.1c1.2,1.2,2,2.9,2,4.8v13.8C133.1,162.5,132.4,164,131.4,165.2z"/>
			<path class="st1" d="M107.8,142c1.2-1.1,2.8-1.8,4.6-1.8h13.8c1.3,0,2.6,0.4,3.6,1.1l-2.2-1.8h-17.8L107.8,142z"/>
			<polygon class="st1" points="132.2,168.3 132.2,168.3 133.8,167 133.8,165.9 130.8,168.3 			"/>
			<polygon class="st1" points="133.8,143.6 133.8,142.5 129.9,139.4 128.6,139.4 			"/>
			<polygon class="st1" points="106.1,139.4 104.9,141 104.9,142.4 107.3,139.4 			"/>
			<polygon class="st1" points="130.9,139.4 133.8,141.8 133.8,140.6 132.3,139.4 			"/>
			<polygon class="st1" points="106.1,168.3 107.4,168.3 104.9,165.3 104.9,166.7 106.2,168.2 			"/>
			<polygon class="st1" points="104.9,167.6 104.9,168.3 105.5,168.3 			"/>
			<polygon class="st1" points="133.1,168.3 133.8,168.3 133.8,167.8 			"/>
			<polygon class="st1" points="104.9,163 104.9,164.3 108.1,168.3 109.2,168.3 			"/>
			<polygon class="st1" points="105.4,139.4 104.9,139.4 104.9,140 			"/>
			<path class="st1" d="M129.4,166.8c-0.9,0.5-2,0.8-3.1,0.8h-13.8c-1.6,0-3.2-0.6-4.3-1.6l1.8,2.3h17.6L129.4,166.8z"/>
			<polygon class="st1" points="133.8,165.1 133.8,164.1 128.5,168.3 129.8,168.3 			"/>
			<polygon class="st1" points="133.8,139.9 133.8,139.4 133.2,139.4 			"/>
		</g>
		<g>
			<path class="st1" d="M107.7,151.2c0.4-0.1,0.8-0.1,1.3-0.1c0.9,0,1.5,0.2,1.9,0.6c0.4,0.4,0.7,0.9,0.7,1.7c0,0.8-0.2,1.4-0.7,1.8
				c-0.4,0.4-1.2,0.7-2.1,0.7c-0.4,0-0.8,0-1.1-0.1V151.2z M108.3,155.3c0.2,0,0.4,0,0.6,0c1.3,0,2-0.7,2-2c0-1.1-0.6-1.8-1.9-1.8
				c-0.3,0-0.6,0-0.7,0.1V155.3z"/>
			<path class="st1" d="M112.7,154.2c0,0.8,0.5,1.2,1.2,1.2c0.4,0,0.7-0.1,0.9-0.2l0.1,0.4c-0.2,0.1-0.6,0.2-1.1,0.2
				c-1,0-1.7-0.7-1.7-1.7c0-1,0.6-1.8,1.6-1.8c1.1,0,1.4,1,1.4,1.6c0,0.1,0,0.2,0,0.3H112.7z M114.5,153.8c0-0.4-0.2-1-0.9-1
				c-0.6,0-0.9,0.6-0.9,1H114.5z"/>
			<path class="st1" d="M115.9,150.8h0.6v5h-0.6V150.8z"/>
			<path class="st1" d="M118.2,151.5c0,0.2-0.1,0.4-0.4,0.4c-0.2,0-0.4-0.2-0.4-0.4c0-0.2,0.2-0.4,0.4-0.4
				C118.1,151.1,118.2,151.3,118.2,151.5z M117.5,155.8v-3.4h0.6v3.4H117.5z"/>
			<path class="st1" d="M119.4,152.4l0.7,1.9c0.1,0.3,0.2,0.6,0.3,0.9h0c0.1-0.3,0.2-0.6,0.3-0.9l0.7-1.9h0.6l-1.3,3.4H120l-1.3-3.4
				H119.4z"/>
			<path class="st1" d="M122.8,154.2c0,0.8,0.5,1.2,1.2,1.2c0.4,0,0.7-0.1,0.9-0.2l0.1,0.4c-0.2,0.1-0.6,0.2-1.1,0.2
				c-1,0-1.7-0.7-1.7-1.7c0-1,0.6-1.8,1.6-1.8c1.1,0,1.4,1,1.4,1.6c0,0.1,0,0.2,0,0.3H122.8z M124.6,153.8c0-0.4-0.2-1-0.9-1
				c-0.6,0-0.9,0.6-0.9,1H124.6z"/>
			<path class="st1" d="M125.9,153.5c0-0.4,0-0.7,0-1.1h0.5l0,0.7h0c0.2-0.5,0.5-0.7,0.9-0.7c0.1,0,0.1,0,0.2,0v0.6
				c-0.1,0-0.1,0-0.2,0c-0.4,0-0.7,0.3-0.8,0.8c0,0.1,0,0.2,0,0.3v1.8h-0.6V153.5z"/>
			<path class="st1" d="M128.6,152.4l0.7,2c0.1,0.2,0.2,0.5,0.2,0.7h0c0.1-0.2,0.1-0.5,0.2-0.7l0.7-2h0.6l-0.9,2.4
				c-0.4,1.2-0.7,1.8-1.2,2.1c-0.3,0.3-0.6,0.4-0.8,0.4l-0.2-0.5c0.2,0,0.4-0.1,0.5-0.3c0.2-0.1,0.4-0.4,0.5-0.7c0-0.1,0-0.1,0-0.1
				s0-0.1,0-0.2l-1.2-3.1H128.6z"/>
		</g>
	</g>
	<g id="Layer_44">
		<path class="st1" d="M74.6,31.8c0,0-0.1,0-0.1,0v-8.4c0-1.3,1.1-2.4,2.4-2.4h17.8c1.3,0,2.4,1.1,2.4,2.4v8.4c0,0-0.1,0-0.1,0H74.6
			z"/>
		<path class="st1" d="M97.7,36.7c0,6.6-5.3,11.9-11.9,11.9c-6.6,0-11.9-5.3-11.9-11.9c0-1.2,0.2-2.4,0.5-3.5c0.1,0,0.1,0,0.2,0H97
			c0,0,0.1,0,0.2,0C97.5,34.4,97.7,35.5,97.7,36.7z"/>
	</g>
	<g id="Layer_38">
	</g>
</g>
<g id="man_and_van">
	<g id="Layer_40">
	</g>
</g>
<g id="resource">
	<g id="Layer_16">
	</g>
</g>
<g id="Layer_29">
	<g id="Layer_31">
	</g>
</g>
<g id="sparks">
</g>
<g id="drill">
</g>
<g id="arm_and_fork">
	<g id="Layer_5">
	</g>
	<g id="Layer_2">
	</g>
	<g id="Layer_4">
	</g>
	<g id="Layer_8">
	</g>
	<g id="Layer_6">
	</g>
	<g id="Layer_3">
	</g>
	<g id="Layer_7">
	</g>
</g>
<g id="truck">
	<g id="Layer_14">
	</g>
	<g id="Layer_13">
	</g>
	<g id="Layer_12">
	</g>
</g>
<g id="ship">
	<g id="Layer_25">
	</g>
	<g id="Layer_22">
	</g>
	<g id="Layer_21">
	</g>
	<g id="Layer_20">
	</g>
	<g id="Layer_18">
	</g>
</g>
<g id="Layer_36">
	<g id="Layer_35" class="st3">
	</g>
	<g id="Layer_34">
	</g>
	<g id="Layer_9">
	</g>
</g>
<g id="van">
	<g id="Layer_24">
	</g>
	<g id="Layer_27">
	</g>
	<g id="Layer_28">
	</g>
	<g id="Layer_26">
	</g>
</g>
</svg>
